<svg width="24" height="24" viewBox="0 0 24 24" fill="none" xmlns="http://www.w3.org/2000/svg">
<path d="M9.713 3.64C10.294 3.145 10.585 2.897 10.889 2.752C11.2359 2.58624 11.6155 2.50021 12 2.50021C12.3845 2.50021 12.7641 2.58624 13.111 2.752C13.415 2.897 13.706 3.145 14.287 3.64C14.886 4.15 15.494 4.408 16.294 4.471C17.055 4.532 17.436 4.563 17.754 4.675C18.488 4.935 19.066 5.512 19.325 6.247C19.437 6.564 19.468 6.945 19.529 7.707C19.592 8.507 19.849 9.114 20.359 9.713C20.855 10.294 21.103 10.585 21.248 10.889C21.584 11.592 21.584 12.409 21.248 13.111C21.103 13.415 20.855 13.706 20.36 14.287C19.8648 14.8433 19.572 15.5505 19.529 16.294C19.468 17.055 19.437 17.436 19.325 17.754C19.1968 18.1166 18.9891 18.4458 18.7171 18.7177C18.445 18.9895 18.1156 19.197 17.753 19.325C17.436 19.437 17.055 19.468 16.293 19.529C15.493 19.592 14.886 19.849 14.287 20.359C13.706 20.855 13.415 21.103 13.111 21.248C12.7641 21.4138 12.3845 21.4998 12 21.4998C11.6155 21.4998 11.2359 21.4138 10.889 21.248C10.585 21.103 10.294 20.855 9.713 20.36C9.1567 19.8648 8.4495 19.572 7.706 19.529C6.945 19.468 6.564 19.437 6.246 19.325C5.88344 19.1968 5.55417 18.9891 5.28233 18.7171C5.01049 18.445 4.80297 18.1156 4.675 17.753C4.563 17.436 4.532 17.055 4.471 16.293C4.4281 15.55 4.13565 14.8431 3.641 14.287C3.145 13.706 2.897 13.415 2.751 13.111C2.5854 12.764 2.49954 12.3844 2.49971 11.9999C2.49988 11.6154 2.58609 11.2358 2.752 10.889C2.897 10.585 3.145 10.294 3.64 9.713C4.16 9.102 4.409 8.49 4.471 7.706C4.532 6.945 4.563 6.564 4.675 6.246C4.80321 5.88344 5.01093 5.55417 5.28294 5.28233C5.55495 5.01049 5.88436 4.80298 6.247 4.675C6.564 4.563 6.945 4.532 7.707 4.471C8.45005 4.4281 9.15687 4.13465 9.713 3.64Z" stroke="black" stroke-linecap="round" stroke-linejoin="round"/>
<path d="M9 7.5H15M9 10.278H15M13.25 17.5L9 13.056H10.5C13.834 13.056 13.834 7.5 10.5 7.5" stroke="black" stroke-width="1.5" stroke-linecap="round" stroke-linejoin="round"/>
</svg>
